<svg width="210" height="419" viewBox="0 0 210 419" fill="none" xmlns="http://www.w3.org/2000/svg">
<path d="M50.1741 148.999L85.4518 204.737L8.91606 198.739L50.1741 148.999Z" fill="#E61D1D"/>
<path d="M44.1879 254.512L85.446 204.772L8.91025 198.774L44.1879 254.512Z" fill="#E61D1D"/>
<path d="M102.174 309.999L137.452 365.737L60.9161 359.739L102.174 309.999Z" fill="#E61D1D"/>
<path d="M96.1879 415.512L137.446 365.772L60.9103 359.774L96.1879 415.512Z" fill="#E61D1D"/>
<path d="M167.129 160.98L202.434 216.701L125.895 210.741L167.129 160.98Z" fill="#E61D1D"/>
<path d="M161.19 266.494L202.423 216.734L125.885 210.773L161.19 266.494Z" fill="#E61D1D"/>
<path d="M59.6194 3.66706L94.8971 59.4052L18.3614 53.407L59.6194 3.66706Z" fill="#E61D1D"/>
<path d="M53.6332 109.18L94.8913 59.4399L18.3556 53.4417L53.6332 109.18Z" fill="#E61D1D"/>
</svg>
