<svg width="684" height="643" viewBox="0 0 684 643" fill="none" xmlns="http://www.w3.org/2000/svg">
<ellipse cx="62.1772" cy="209.239" rx="22.6083" ry="22.82" transform="rotate(-14.1935 62.1772 209.239)" fill="#232323"/>
<ellipse cx="101.63" cy="199.258" rx="22.6083" ry="22.82" transform="rotate(-14.1935 101.63 199.258)" fill="#232323"/>
<ellipse cx="73.8116" cy="176.255" rx="22.7857" ry="23.2003" transform="rotate(-14.1935 73.8116 176.255)" fill="#232323"/>
<path d="M77.88 203.7L84.4554 202.037L102.191 238.351L80.2727 243.895L77.88 203.7Z" fill="#232323"/>
<ellipse cx="22.6083" cy="22.82" rx="22.6083" ry="22.82" transform="matrix(-0.969473 -0.245198 -0.245198 0.969473 441.999 353.001)" fill="#232323"/>
<ellipse cx="22.6083" cy="22.82" rx="22.6083" ry="22.82" transform="matrix(-0.969473 -0.245198 -0.245198 0.969473 402.548 343.022)" fill="#232323"/>
<ellipse cx="22.7857" cy="23.2003" rx="22.7857" ry="23.2003" transform="matrix(-0.969473 -0.245198 -0.245198 0.969473 430.632 319.692)" fill="#232323"/>
<path d="M398.783 364.042L392.208 362.379L374.472 398.693L396.39 404.237L398.783 364.042Z" fill="#232323"/>
<ellipse cx="22.6083" cy="22.82" rx="22.6083" ry="22.82" transform="matrix(-0.969473 -0.245198 -0.245198 0.969473 606.663 49.6689)" fill="#232323"/>
<ellipse cx="22.6083" cy="22.82" rx="22.6083" ry="22.82" transform="matrix(-0.969473 -0.245198 -0.245198 0.969473 567.21 39.6904)" fill="#232323"/>
<ellipse cx="22.7857" cy="23.2003" rx="22.7857" ry="23.2003" transform="matrix(-0.969473 -0.245198 -0.245198 0.969473 595.294 16.3604)" fill="#232323"/>
<path d="M563.447 60.7098L556.872 59.0467L539.136 95.3613L561.054 100.905L563.447 60.7098Z" fill="#232323"/>
<ellipse cx="17.8113" cy="18.6542" rx="17.8113" ry="18.6542" transform="matrix(0.999852 0.0172026 -0.0156827 0.999877 315.474 111.21)" fill="#F3E9CE"/>
<ellipse cx="17.8113" cy="18.6542" rx="17.8113" ry="18.6542" transform="matrix(0.999852 0.0172026 -0.0156827 0.999877 340.404 111.642)" fill="#F3E9CE"/>
<path d="M344.812 171.419L330.799 156.252L318.567 141.116L371.993 142.035L359.293 156.742L344.812 171.419Z" fill="#F3E9CE"/>
<ellipse cx="17.8113" cy="18.6542" rx="17.8113" ry="18.6542" transform="matrix(0.999852 0.0172026 -0.0156827 0.999877 0.585205 336.544)" fill="#F3E9CE"/>
<ellipse cx="17.8113" cy="18.6542" rx="17.8113" ry="18.6542" transform="matrix(0.999852 0.0172026 -0.0156827 0.999877 25.5149 336.974)" fill="#F3E9CE"/>
<path d="M29.923 396.751L15.9101 381.584L3.67806 366.448L57.1041 367.367L44.404 382.074L29.923 396.751Z" fill="#F3E9CE"/>
<ellipse cx="17.8113" cy="18.6542" rx="17.8113" ry="18.6542" transform="matrix(0.999852 0.0172026 -0.0156827 0.999877 623.14 582.099)" fill="#F3E9CE"/>
<ellipse cx="17.8113" cy="18.6542" rx="17.8113" ry="18.6542" transform="matrix(0.999852 0.0172026 -0.0156827 0.999877 648.072 582.531)" fill="#F3E9CE"/>
<path d="M652.48 642.307L638.467 627.141L626.235 612.005L679.661 612.924L666.961 627.631L652.48 642.307Z" fill="#F3E9CE"/>
<path d="M454.993 281.544L474.744 211.21L535.238 253.757L515.487 324.091L454.993 281.544Z" fill="#F3E9CE"/>
<path d="M179.365 295.083L228.707 241.21L263.519 306.463L214.176 360.336L179.365 295.083Z" fill="#F3E9CE"/>
</svg>
