<svg width="65" height="69" viewBox="0 0 65 69" fill="none" xmlns="http://www.w3.org/2000/svg">
<path d="M64.4223 40.2565C64.2674 49.8236 56.552 57.4568 47.1894 57.3054C43.5217 57.2461 40.146 55.9998 37.4048 53.932L40.2214 68.7441L23.2685 68.47L26.2384 53.9829C23.4952 55.8222 20.2025 56.8701 16.6758 56.8131C7.31322 56.6617 -0.151476 48.7833 0.0029906 39.2161C0.147071 30.3035 6.85272 23.07 15.3389 22.244C14.9287 20.6829 14.7207 19.0369 14.7482 17.3383C14.9055 7.61173 22.6826 -0.149763 32.1186 0.00255767C41.5547 0.155101 49.0767 8.164 48.9195 17.8907C48.8927 19.5515 48.644 21.1551 48.2025 22.6717C57.3518 23.0651 64.5745 30.844 64.4223 40.2565Z" fill="#232323"/>
</svg>
