<svg width="506" height="643" viewBox="0 0 506 643" fill="none" xmlns="http://www.w3.org/2000/svg">
<rect width="409.072" height="578.448" rx="43.3333" transform="matrix(-0.984329 0.176345 0.176533 0.984295 402.945 0.420294)" fill="#4D4D4D"/>
<path d="M92.1598 346.903L89.2891 171.162L145.041 337.649L150.581 514.155L92.1598 346.903Z" fill="#F3E9CE"/>
<path d="M110.777 344.631L107.891 273.902L127.994 341.617L132.166 412.62L110.777 344.631Z" fill="#232323"/>
<path d="M298.469 577.014L118.003 581.482L289.47 525.593L470.748 518.518L298.469 577.014Z" fill="#F3E9CE"/>
<path d="M296.31 558.904L223.662 562.388L293.38 542.162L366.32 537.423L296.31 558.904Z" fill="#232323"/>
<path d="M217.27 113.025L36.8039 117.493L208.271 61.6038L389.549 54.5292L217.27 113.025Z" fill="#F3E9CE"/>
<path d="M215.111 94.9131L142.464 98.3974L212.181 78.1713L285.121 73.432L215.111 94.9131Z" fill="#232323"/>
<path d="M362.718 299.556L359.847 123.815L415.599 290.302L421.139 466.808L362.718 299.556Z" fill="#F3E9CE"/>
<path d="M381.335 297.284L378.449 226.555L398.552 294.271L402.724 365.273L381.335 297.284Z" fill="#232323"/>
<rect width="174.789" height="284.08" transform="matrix(-0.98503 0.172382 0.172382 0.98503 313.615 156.554)" fill="#F3E9CE"/>
<rect width="139.832" height="240.376" transform="matrix(-0.98503 0.172382 0.172382 0.98503 300.161 181.093)" fill="#232323"/>
<path d="M184.878 492.861C178.461 493.984 174.176 499.943 175.26 506.136C176.344 512.328 182.397 516.478 188.815 515.355C195.233 514.232 199.517 508.273 198.433 502.08C197.349 495.888 191.296 491.738 184.878 492.861Z" fill="#F3E9CE" stroke="#F3E9CE" stroke-width="1.44444"/>
<path d="M369.35 460.579C362.932 461.702 358.648 467.661 359.731 473.854C360.815 480.046 366.869 484.196 373.286 483.073C379.704 481.95 383.988 475.991 382.905 469.798C381.821 463.606 375.768 459.456 369.35 460.579Z" fill="#F3E9CE" stroke="#F3E9CE" stroke-width="1.44444"/>
<path d="M309.499 118.568C303.081 119.691 298.797 125.65 299.881 131.842C300.965 138.035 307.018 142.185 313.435 141.062C319.853 139.939 324.137 133.98 323.054 127.787C321.97 121.594 315.917 117.445 309.499 118.568Z" fill="#F3E9CE" stroke="#F3E9CE" stroke-width="1.44444"/>
<path d="M125.024 150.854C118.606 151.977 114.321 157.936 115.405 164.128C116.489 170.321 122.542 174.471 128.96 173.348C135.378 172.225 139.662 166.266 138.578 160.073C137.495 153.88 131.442 149.73 125.024 150.854Z" fill="#F3E9CE" stroke="#F3E9CE" stroke-width="1.44444"/>
<rect width="109.868" height="194.243" transform="matrix(-0.98503 0.172382 0.172382 0.98503 289.591 207.594)" fill="#F3E9CE"/>
</svg>
